<svg width="21" height="20" viewBox="0 0 21 20" fill="none" xmlns="http://www.w3.org/2000/svg">
<path d="M7.6875 10C7.6875 10.0829 7.65458 10.1624 7.59597 10.221C7.53737 10.2796 7.45788 10.3125 7.375 10.3125C7.29212 10.3125 7.21263 10.2796 7.15403 10.221C7.09542 10.1624 7.0625 10.0829 7.0625 10C7.0625 9.91712 7.09542 9.83763 7.15403 9.77903C7.21263 9.72042 7.29212 9.6875 7.375 9.6875C7.45788 9.6875 7.53737 9.72042 7.59597 9.77903C7.65458 9.83763 7.6875 9.91712 7.6875 10ZM7.6875 10H7.375M10.8125 10C10.8125 10.0829 10.7796 10.1624 10.721 10.221C10.6624 10.2796 10.5829 10.3125 10.5 10.3125C10.4171 10.3125 10.3376 10.2796 10.279 10.221C10.2204 10.1624 10.1875 10.0829 10.1875 10C10.1875 9.91712 10.2204 9.83763 10.279 9.77903C10.3376 9.72042 10.4171 9.6875 10.5 9.6875C10.5829 9.6875 10.6624 9.72042 10.721 9.77903C10.7796 9.83763 10.8125 9.91712 10.8125 10ZM10.8125 10H10.5M13.9375 10C13.9375 10.0829 13.9046 10.1624 13.846 10.221C13.7874 10.2796 13.7079 10.3125 13.625 10.3125C13.5421 10.3125 13.4626 10.2796 13.404 10.221C13.3454 10.1624 13.3125 10.0829 13.3125 10C13.3125 9.91712 13.3454 9.83763 13.404 9.77903C13.4626 9.72042 13.5421 9.6875 13.625 9.6875C13.7079 9.6875 13.7874 9.72042 13.846 9.77903C13.9046 9.83763 13.9375 9.91712 13.9375 10ZM13.9375 10H13.625M18 10C18 13.7967 14.6417 16.875 10.5 16.875C9.78099 16.8759 9.06503 16.7814 8.37083 16.5942C7.3923 17.2824 6.1986 17.5951 5.00833 17.475C4.876 17.4622 4.74422 17.4442 4.61333 17.4208C5.02406 16.9368 5.30456 16.356 5.42833 15.7333C5.50333 15.3525 5.3175 14.9825 5.03917 14.7117C3.775 13.4817 3 11.8242 3 10C3 6.20333 6.35833 3.125 10.5 3.125C14.6417 3.125 18 6.20333 18 10Z" stroke="#667085" stroke-width="1.25" stroke-linecap="round" stroke-linejoin="round"/>
</svg>
