<svg width="21" height="20" viewBox="0 0 21 20" fill="none" xmlns="http://www.w3.org/2000/svg">
<path d="M3.625 5C3.625 4.50272 3.82254 4.02581 4.17417 3.67417C4.52581 3.32254 5.00272 3.125 5.5 3.125H7.375C7.87228 3.125 8.34919 3.32254 8.70082 3.67417C9.05246 4.02581 9.25 4.50272 9.25 5V6.875C9.25 7.37228 9.05246 7.84919 8.70082 8.20082C8.34919 8.55246 7.87228 8.75 7.375 8.75H5.5C5.00272 8.75 4.52581 8.55246 4.17417 8.20082C3.82254 7.84919 3.625 7.37228 3.625 6.875V5ZM3.625 13.125C3.625 12.6277 3.82254 12.1508 4.17417 11.7992C4.52581 11.4475 5.00272 11.25 5.5 11.25H7.375C7.87228 11.25 8.34919 11.4475 8.70082 11.7992C9.05246 12.1508 9.25 12.6277 9.25 13.125V15C9.25 15.4973 9.05246 15.9742 8.70082 16.3258C8.34919 16.6775 7.87228 16.875 7.375 16.875H5.5C5.00272 16.875 4.52581 16.6775 4.17417 16.3258C3.82254 15.9742 3.625 15.4973 3.625 15V13.125ZM11.75 5C11.75 4.50272 11.9475 4.02581 12.2992 3.67417C12.6508 3.32254 13.1277 3.125 13.625 3.125H15.5C15.9973 3.125 16.4742 3.32254 16.8258 3.67417C17.1775 4.02581 17.375 4.50272 17.375 5V6.875C17.375 7.37228 17.1775 7.84919 16.8258 8.20082C16.4742 8.55246 15.9973 8.75 15.5 8.75H13.625C13.1277 8.75 12.6508 8.55246 12.2992 8.20082C11.9475 7.84919 11.75 7.37228 11.75 6.875V5ZM11.75 13.125C11.75 12.6277 11.9475 12.1508 12.2992 11.7992C12.6508 11.4475 13.1277 11.25 13.625 11.25H15.5C15.9973 11.25 16.4742 11.4475 16.8258 11.7992C17.1775 12.1508 17.375 12.6277 17.375 13.125V15C17.375 15.4973 17.1775 15.9742 16.8258 16.3258C16.4742 16.6775 15.9973 16.875 15.5 16.875H13.625C13.1277 16.875 12.6508 16.6775 12.2992 16.3258C11.9475 15.9742 11.75 15.4973 11.75 15V13.125Z" stroke="#1800AD" stroke-width="1.25" stroke-linecap="round" stroke-linejoin="round"/>
</svg>
