<svg width="20" height="20" viewBox="0 0 20 20" fill="none" xmlns="http://www.w3.org/2000/svg">
<path d="M4.83366 9.41667L1.66699 18.3333L10.5837 15.175M3.33366 2.5H3.34199M18.3337 6.66667H18.342M12.5003 1.66667H12.5087M18.3337 16.6667H18.342M18.3337 1.66667L16.467 2.29167C15.9356 2.46866 15.4823 2.8247 15.1843 3.29894C14.8864 3.77317 14.7625 4.33616 14.8337 4.89167C14.917 5.60833 14.3587 6.25 13.6253 6.25H13.3087C12.592 6.25 11.9753 6.75 11.842 7.45L11.667 8.33333M18.3337 10.8333L17.6503 10.5583C16.9337 10.275 16.1337 10.725 16.0003 11.4833C15.9087 12.0667 15.4003 12.5 14.8087 12.5H14.167M9.16699 1.66667L9.44199 2.35C9.72533 3.06667 9.27533 3.86667 8.51699 4C7.93366 4.08333 7.50033 4.6 7.50033 5.19167V5.83333M9.16699 10.8333C10.7753 12.4417 11.5253 14.3083 10.8337 15C10.142 15.6917 8.27533 14.9417 6.66699 13.3333C5.05866 11.725 4.30866 9.85833 5.00033 9.16667C5.69199 8.475 7.55866 9.225 9.16699 10.8333Z" stroke="#667085" stroke-width="1.66667" stroke-linecap="round" stroke-linejoin="round"/>
</svg>
