<svg width="25" height="25" viewBox="0 0 25 25" fill="none" xmlns="http://www.w3.org/2000/svg">
<path d="M23.2502 12.7115C23.2502 11.8097 23.1753 11.1517 23.0132 10.4692H12.4746V14.5393H18.6605C18.5359 15.5508 17.8624 17.0741 16.3658 18.0977L16.3448 18.2339L19.6769 20.7562L19.9077 20.7787C22.0279 18.8654 23.2502 16.0504 23.2502 12.7115Z" fill="#4285F4"/>
<path d="M12.4736 23.4351C15.5042 23.4351 18.0484 22.4601 19.9067 20.7785L16.3647 18.0975C15.4169 18.7434 14.1447 19.1943 12.4736 19.1943C9.50532 19.1943 6.98606 17.2811 6.08801 14.6367L5.95637 14.6476L2.4916 17.2677L2.44629 17.3907C4.29208 20.9734 8.08349 23.4351 12.4736 23.4351Z" fill="#34A853"/>
<path d="M6.08897 14.6364C5.85202 13.954 5.71488 13.2228 5.71488 12.4673C5.71488 11.7117 5.85202 10.9806 6.07651 10.2982L6.07023 10.1528L2.56204 7.49072L2.44726 7.54407C1.68651 9.03079 1.25 10.7003 1.25 12.4673C1.25 14.2343 1.68651 15.9037 2.44726 17.3904L6.08897 14.6364Z" fill="#FBBC05"/>
<path d="M12.4736 5.74073C14.5813 5.74073 16.003 6.63031 16.8137 7.37372L19.9815 4.35155C18.036 2.58457 15.5042 1.5 12.4736 1.5C8.08349 1.5 4.29208 3.96157 2.44629 7.54426L6.07554 10.2984C6.98606 7.65397 9.50532 5.74073 12.4736 5.74073Z" fill="#EB4335"/>
</svg>
