<svg width="21" height="20" viewBox="0 0 21 20" fill="none" xmlns="http://www.w3.org/2000/svg">
<path d="M10.5004 15V10.625M10.5004 10.625C10.9221 10.6253 11.342 10.5724 11.7504 10.4675M10.5004 10.625C10.0788 10.6253 9.65879 10.5724 9.25042 10.4675M12.3754 16.6992C11.1365 16.9344 9.86435 16.9344 8.62542 16.6992M11.7504 18.685C10.9194 18.772 10.0815 18.772 9.25042 18.685M12.3754 15V14.84C12.3754 14.0208 12.9238 13.3208 13.6321 12.91C14.8221 12.2209 15.7516 11.1585 16.2766 9.88752C16.8016 8.61655 16.8928 7.2079 16.536 5.87985C16.1792 4.55181 15.3944 3.37849 14.3031 2.54172C13.2119 1.70495 11.8751 1.25142 10.5 1.25142C9.12486 1.25142 7.78811 1.70495 6.69687 2.54172C5.60562 3.37849 4.82081 4.55181 4.46403 5.87985C4.10724 7.2079 4.19841 8.61655 4.72341 9.88752C5.2484 11.1585 6.17792 12.2209 7.36792 12.91C8.07625 13.3208 8.62542 14.0208 8.62542 14.84V15" stroke="#667085" stroke-width="1.25" stroke-linecap="round" stroke-linejoin="round"/>
</svg>
