<svg width="203" height="40" viewBox="0 0 203 40" fill="none" xmlns="http://www.w3.org/2000/svg">
<path d="M4.34375 19.1691C4.34375 27.5509 11.1385 34.3456 19.5203 34.3456C27.902 34.3456 34.6968 27.5509 34.6968 19.1691C34.6968 10.7874 27.902 3.99262 19.5203 3.99262C11.1385 3.99262 4.34375 10.7874 4.34375 19.1691Z" fill="url(#paint0_radial_201_1246)"/>
<path d="M10.7556 14.6436H12.0725L15.1688 22.2064H15.2755L18.3719 14.6436H19.6887V23.7546H18.6566V16.8323H18.5676L15.7204 23.7546H14.7239L11.8767 16.8323H11.7877V23.7546H10.7556V14.6436ZM29.2323 17.4907H28.129C28.0638 17.1734 27.9496 16.8946 27.7865 16.6544C27.6263 16.4142 27.4306 16.2125 27.1992 16.0494C26.9709 15.8833 26.7173 15.7587 26.4385 15.6757C26.1597 15.5926 25.8691 15.5511 25.5666 15.5511C25.0149 15.5511 24.5152 15.6905 24.0673 15.9693C23.6225 16.2481 23.2681 16.6588 23.0041 17.2016C22.7431 17.7443 22.6126 18.4101 22.6126 19.1991C22.6126 19.988 22.7431 20.6538 23.0041 21.1965C23.2681 21.7393 23.6225 22.15 24.0673 22.4288C24.5152 22.7076 25.0149 22.847 25.5666 22.847C25.8691 22.847 26.1597 22.8055 26.4385 22.7224C26.7173 22.6394 26.9709 22.5163 27.1992 22.3532C27.4306 22.1871 27.6263 21.984 27.7865 21.7437C27.9496 21.5005 28.0638 21.2217 28.129 20.9074H29.2323C29.1493 21.373 28.998 21.7897 28.7785 22.1575C28.5591 22.5252 28.2862 22.8381 27.96 23.0961C27.6337 23.3512 27.2675 23.5455 26.8611 23.6789C26.4578 23.8124 26.0263 23.8791 25.5666 23.8791C24.7895 23.8791 24.0985 23.6893 23.4935 23.3097C22.8884 22.9301 22.4124 22.3903 22.0654 21.6903C21.7184 20.9904 21.5449 20.16 21.5449 19.1991C21.5449 18.2381 21.7184 17.4077 22.0654 16.7078C22.4124 16.0078 22.8884 15.4681 23.4935 15.0884C24.0985 14.7088 24.7895 14.519 25.5666 14.519C26.0263 14.519 26.4578 14.5857 26.8611 14.7192C27.2675 14.8526 27.6337 15.0484 27.96 15.3064C28.2862 15.5615 28.5591 15.8729 28.7785 16.2407C28.998 16.6054 29.1493 17.0221 29.2323 17.4907Z" fill="white"/>
<path d="M65.6483 24.356H66.5549L64.5374 15.0987L61.6901 22.5302L58.8427 15.0987L56.8125 24.356H57.7318L59.0724 18.176L61.6901 24.8668L64.2949 18.176L65.6483 24.356Z" fill="#1800AD"/>
<path d="M77.752 21.4826V15.6728H76.8582V21.6102C76.8582 21.9678 76.7943 22.2614 76.6667 22.5041C76.2964 23.2191 75.5813 23.5767 74.5216 23.5767C73.832 23.5767 73.283 23.4234 72.8743 23.117C72.4019 22.7722 72.1721 22.2743 72.1721 21.6102V15.6728H71.2783V21.4826C71.2783 22.4274 71.5847 23.168 72.1976 23.7043C72.7723 24.2151 73.5511 24.4705 74.5216 24.4705C75.4792 24.4705 76.2452 24.2151 76.8327 23.7043C77.4456 23.168 77.752 22.4274 77.752 21.4826Z" fill="#1800AD"/>
<path d="M85.708 20.2714C86.8317 20.5396 87.5978 20.8332 88.0063 21.1651C88.2872 21.395 88.4277 21.6887 88.4277 22.0462C88.4277 22.4037 88.3511 22.6974 88.198 22.9018C87.8148 23.438 87.1254 23.7061 86.1549 23.7061C84.8014 23.7061 84.0353 23.2465 83.8693 22.3271H82.8223C83.1288 23.7955 84.2396 24.5233 86.1549 24.5233C87.0105 24.5233 87.7254 24.3446 88.3001 23.9615C88.9895 23.5146 89.3471 22.8507 89.3471 21.9823C89.3471 21.2674 89.0662 20.7182 88.5044 20.3352C88.1086 20.0543 87.47 19.799 86.5891 19.5691C85.6952 19.3392 85.1207 19.1477 84.8525 19.0073C84.2652 18.7135 83.9716 18.305 83.9842 17.7687C83.9842 17.4878 84.0353 17.2451 84.1631 17.0665C84.495 16.5684 85.0823 16.313 85.9251 16.313C87.1126 16.313 87.7893 16.6962 87.9681 17.4366H88.9385C88.6193 16.1854 87.6105 15.547 85.9251 15.547C85.1591 15.547 84.4823 15.7512 83.9204 16.1599C83.3459 16.5684 83.0521 17.1686 83.0521 17.9858C83.0521 19.0967 83.946 19.8627 85.708 20.2714Z" fill="#1800AD"/>
<path d="M93.7646 16.4763H95.8714V24.3291H96.7652V16.4763H98.8721V15.6463H96.7652H95.8714H93.7646V16.4763Z" fill="#1800AD"/>
<path d="M119.162 21.6991H118.179C117.873 22.2609 117.451 22.7206 116.915 23.0525C116.379 23.3973 115.779 23.5633 115.14 23.5633C114.183 23.5633 113.365 23.2185 112.689 22.5034C112.025 21.8267 111.705 20.9968 111.705 20.0263C111.705 19.056 112.025 18.2259 112.689 17.5365C112.995 17.2173 113.365 16.9619 113.787 16.7704C114.195 16.5789 114.604 16.4766 115.012 16.4766C115.408 16.4766 115.753 16.5277 116.059 16.6171C116.992 16.898 117.694 17.4598 118.166 18.3154H119.149C118.817 17.4982 118.294 16.8341 117.566 16.3235C116.826 15.8127 116.021 15.5573 115.14 15.5573C113.927 15.5573 112.906 16.0042 112.063 16.8853C111.667 17.2938 111.361 17.7791 111.144 18.3154C110.914 18.8516 110.812 19.4263 110.812 20.0263C110.812 21.2522 111.22 22.2864 112.063 23.1546C112.906 24.0485 113.927 24.4826 115.14 24.4826C116.021 24.4826 116.826 24.2272 117.579 23.7164C118.307 23.2058 118.83 22.5418 119.162 21.6991Z" fill="#1800AD"/>
<path d="M129.493 24.3549V23.5249H125.228V20.435H129.365V19.5922H125.228V16.5021H129.493V15.6722H124.334V24.3549H129.493Z" fill="#1800AD"/>
<path d="M136.137 23.4612V15.6722H135.243V24.3549H135.69H136.137H139.24V23.4612H136.137Z" fill="#1800AD"/>
<path d="M149.439 24.3549V23.5249H145.174V20.435H149.311V19.5922H145.174V16.5021H149.439V15.6722H144.28V24.3549H149.439Z" fill="#1800AD"/>
<path d="M160.858 21.9417C160.858 21.3289 160.704 20.8053 160.411 20.3967C160.104 19.9881 159.696 19.7072 159.198 19.5667C159.492 19.4391 159.747 19.2092 159.938 18.8645C160.028 18.7113 160.092 18.558 160.143 18.392C160.194 18.2261 160.219 17.9962 160.219 17.7025C160.219 17.4216 160.143 17.128 160.015 16.8471C159.632 16.0681 158.802 15.6722 157.538 15.6722H155.188V24.3549H157.844C158.725 24.3549 159.428 24.1634 159.964 23.7549C160.232 23.5506 160.449 23.2824 160.615 22.9504C160.768 22.6313 160.858 22.2992 160.858 21.9417ZM159.325 17.8429C159.325 18.3155 159.185 18.6601 158.904 18.89C158.623 19.1198 158.253 19.2348 157.793 19.2348H156.082V16.5278H157.538C158.725 16.5278 159.325 16.9747 159.325 17.8429ZM159.964 21.7629C159.964 22.2865 159.785 22.7079 159.428 23.0271C159.083 23.3463 158.636 23.4995 158.1 23.4995H156.082V20.1285H158.24C158.687 20.1285 159.083 20.2818 159.428 20.5882C159.581 20.7287 159.709 20.8947 159.811 21.0862C159.913 21.2905 159.964 21.5075 159.964 21.7629Z" fill="#1800AD"/>
<path d="M166.793 20.0646V16.5277H168.811C169.334 16.5277 169.756 16.6936 170.075 17.0257C170.381 17.3577 170.547 17.7662 170.547 18.277C170.547 18.7877 170.381 19.2091 170.049 19.5539C169.717 19.8987 169.309 20.0646 168.811 20.0646H166.793ZM171.441 18.2898C171.441 17.5492 171.16 16.9108 170.624 16.4127C170.1 15.9276 169.449 15.6722 168.683 15.6722H165.899V24.3549H166.793V20.9202H167.827L170.381 24.3549H171.581L168.9 20.9202C169.577 20.8818 170.151 20.6393 170.624 20.1923C171.16 19.6943 171.441 19.056 171.441 18.2898Z" fill="#1800AD"/>
<path d="M178.087 21.1627L179.67 17.1662L181.241 21.1627H178.087ZM183.475 24.3549L179.67 15.0721L175.853 24.3549H176.823L177.755 21.9928H181.573L182.505 24.3549H183.475Z" fill="#1800AD"/>
<path d="M187.686 16.4763H189.792V24.3291H190.686V16.4763H192.793V15.6463H190.686H189.792H187.686V16.4763Z" fill="#1800AD"/>
<path d="M202.992 24.3549V23.5249H198.727V20.435H202.864V19.5922H198.727V16.5021H202.992V15.6722H197.833V24.3549H202.992Z" fill="#1800AD"/>
<path d="M45.6151 13.0749H46.6288V27.0696H45.6151V13.0749Z" fill="#1800AD"/>
<defs>
<radialGradient id="paint0_radial_201_1246" cx="0" cy="0" r="1" gradientUnits="userSpaceOnUse" gradientTransform="translate(19.5202 19.1691) scale(21.4628 21.4628)">
<stop stop-color="#5170FF"/>
<stop offset="1" stop-color="#1800AD"/>
</radialGradient>
</defs>
</svg>
