<svg width="203" height="39" viewBox="0 0 203 39" fill="none" xmlns="http://www.w3.org/2000/svg">
<path d="M4.34375 18.6692C4.34375 27.051 11.1385 33.8457 19.5203 33.8457C27.902 33.8457 34.6968 27.051 34.6968 18.6692C34.6968 10.2874 27.902 3.49268 19.5203 3.49268C11.1385 3.49268 4.34375 10.2874 4.34375 18.6692Z" fill="white"/>
<path d="M10.7556 14.1436H12.0725L15.1688 21.7065H15.2755L18.3719 14.1436H19.6887V23.2546H18.6566V16.3324H18.5676L15.7204 23.2546H14.7239L11.8767 16.3324H11.7877V23.2546H10.7556V14.1436ZM29.2323 16.9908H28.129C28.0638 16.6735 27.9496 16.3947 27.7865 16.1545C27.6263 15.9142 27.4306 15.7126 27.1992 15.5494C26.9709 15.3834 26.7173 15.2588 26.4385 15.1757C26.1597 15.0927 25.8691 15.0512 25.5666 15.0512C25.0149 15.0512 24.5152 15.1906 24.0673 15.4694C23.6225 15.7481 23.2681 16.1589 23.0041 16.7017C22.7431 17.2444 22.6126 17.9102 22.6126 18.6991C22.6126 19.488 22.7431 20.1539 23.0041 20.6966C23.2681 21.2394 23.6225 21.6501 24.0673 21.9289C24.5152 22.2077 25.0149 22.3471 25.5666 22.3471C25.8691 22.3471 26.1597 22.3056 26.4385 22.2225C26.7173 22.1395 26.9709 22.0164 27.1992 21.8533C27.4306 21.6872 27.6263 21.484 27.7865 21.2438C27.9496 21.0006 28.0638 20.7218 28.129 20.4075H29.2323C29.1493 20.8731 28.998 21.2898 28.7785 21.6575C28.5591 22.0253 28.2862 22.3382 27.96 22.5962C27.6337 22.8513 27.2675 23.0455 26.8611 23.179C26.4578 23.3125 26.0263 23.3792 25.5666 23.3792C24.7895 23.3792 24.0985 23.1894 23.4935 22.8098C22.8884 22.4301 22.4124 21.8904 22.0654 21.1904C21.7184 20.4905 21.5449 19.6601 21.5449 18.6991C21.5449 17.7382 21.7184 16.9078 22.0654 16.2079C22.4124 15.5079 22.8884 14.9681 23.4935 14.5885C24.0985 14.2089 24.7895 14.0191 25.5666 14.0191C26.0263 14.0191 26.4578 14.0858 26.8611 14.2193C27.2675 14.3527 27.6337 14.5485 27.96 14.8065C28.2862 15.0616 28.5591 15.373 28.7785 15.7407C28.998 16.1055 29.1493 16.5222 29.2323 16.9908Z" fill="#8875FF"/>
<path d="M65.6483 23.8561H66.5549L64.5374 14.5987L61.6901 22.0302L58.8427 14.5987L56.8125 23.8561H57.7318L59.0724 17.676L61.6901 24.3668L64.2949 17.676L65.6483 23.8561Z" fill="white"/>
<path d="M77.752 20.9826V15.1728H76.8582V21.1102C76.8582 21.4678 76.7943 21.7614 76.6667 22.0041C76.2964 22.7191 75.5813 23.0767 74.5216 23.0767C73.832 23.0767 73.283 22.9234 72.8743 22.617C72.4019 22.2722 72.1721 21.7743 72.1721 21.1102V15.1728H71.2783V20.9826C71.2783 21.9274 71.5847 22.668 72.1976 23.2043C72.7723 23.7151 73.5511 23.9705 74.5216 23.9705C75.4792 23.9705 76.2452 23.7151 76.8327 23.2043C77.4456 22.668 77.752 21.9274 77.752 20.9826Z" fill="white"/>
<path d="M85.708 19.7714C86.8317 20.0396 87.5978 20.3332 88.0063 20.6651C88.2872 20.895 88.4277 21.1887 88.4277 21.5462C88.4277 21.9037 88.3511 22.1974 88.198 22.4018C87.8148 22.9381 87.1254 23.2061 86.1549 23.2061C84.8014 23.2061 84.0353 22.7466 83.8693 21.8271H82.8223C83.1288 23.2955 84.2396 24.0233 86.1549 24.0233C87.0105 24.0233 87.7254 23.8447 88.3001 23.4615C88.9895 23.0146 89.3471 22.3507 89.3471 21.4823C89.3471 20.7674 89.0662 20.2183 88.5044 19.8353C88.1086 19.5543 87.47 19.299 86.5891 19.0691C85.6952 18.8392 85.1207 18.6477 84.8525 18.5073C84.2652 18.2136 83.9716 17.805 83.9842 17.2687C83.9842 16.9878 84.0353 16.7451 84.1631 16.5665C84.495 16.0684 85.0823 15.813 85.9251 15.813C87.1126 15.813 87.7893 16.1962 87.9681 16.9366H88.9385C88.6193 15.6854 87.6105 15.047 85.9251 15.047C85.1591 15.047 84.4823 15.2512 83.9204 15.6599C83.3459 16.0684 83.0521 16.6686 83.0521 17.4858C83.0521 18.5967 83.946 19.3627 85.708 19.7714Z" fill="white"/>
<path d="M93.7646 15.9763H95.8714V23.8291H96.7652V15.9763H98.8721V15.1463H96.7652H95.8714H93.7646V15.9763Z" fill="white"/>
<path d="M119.162 21.199H118.179C117.873 21.7608 117.451 22.2205 116.915 22.5525C116.379 22.8973 115.779 23.0633 115.14 23.0633C114.183 23.0633 113.365 22.7185 112.689 22.0034C112.025 21.3266 111.705 20.4967 111.705 19.5263C111.705 18.5559 112.025 17.7259 112.689 17.0365C112.995 16.7172 113.365 16.4618 113.787 16.2703C114.195 16.0788 114.604 15.9766 115.012 15.9766C115.408 15.9766 115.753 16.0276 116.059 16.117C116.992 16.3979 117.694 16.9598 118.166 17.8153H119.149C118.817 16.9981 118.294 16.3341 117.566 15.8234C116.826 15.3127 116.021 15.0573 115.14 15.0573C113.927 15.0573 112.906 15.5042 112.063 16.3853C111.667 16.7938 111.361 17.279 111.144 17.8153C110.914 18.3516 110.812 18.9262 110.812 19.5263C110.812 20.7521 111.22 21.7863 112.063 22.6546C112.906 23.5485 113.927 23.9825 115.14 23.9825C116.021 23.9825 116.826 23.7272 117.579 23.2164C118.307 22.7058 118.83 22.0417 119.162 21.199Z" fill="white"/>
<path d="M129.493 23.855V23.025H125.228V19.935H129.365V19.0923H125.228V16.0022H129.493V15.1723H124.334V23.855H129.493Z" fill="white"/>
<path d="M136.137 22.9612V15.1723H135.243V23.855H135.69H136.137H139.24V22.9612H136.137Z" fill="white"/>
<path d="M149.439 23.855V23.025H145.174V19.935H149.311V19.0923H145.174V16.0022H149.439V15.1723H144.28V23.855H149.439Z" fill="white"/>
<path d="M160.858 21.4418C160.858 20.8289 160.704 20.3053 160.411 19.8968C160.104 19.4881 159.696 19.2072 159.198 19.0667C159.492 18.9391 159.747 18.7093 159.938 18.3645C160.028 18.2113 160.092 18.0581 160.143 17.8921C160.194 17.7261 160.219 17.4962 160.219 17.2025C160.219 16.9216 160.143 16.628 160.015 16.3471C159.632 15.5681 158.802 15.1723 157.538 15.1723H155.188V23.855H157.844C158.725 23.855 159.428 23.6635 159.964 23.255C160.232 23.0506 160.449 22.7824 160.615 22.4505C160.768 22.1313 160.858 21.7992 160.858 21.4418ZM159.325 17.343C159.325 17.8155 159.185 18.1602 158.904 18.39C158.623 18.6199 158.253 18.7348 157.793 18.7348H156.082V16.0278H157.538C158.725 16.0278 159.325 16.4747 159.325 17.343ZM159.964 21.2629C159.964 21.7865 159.785 22.2079 159.428 22.5272C159.083 22.8463 158.636 22.9996 158.1 22.9996H156.082V19.6286H158.24C158.687 19.6286 159.083 19.7818 159.428 20.0883C159.581 20.2287 159.709 20.3947 159.811 20.5862C159.913 20.7905 159.964 21.0076 159.964 21.2629Z" fill="white"/>
<path d="M166.793 19.5647V16.0277H168.811C169.334 16.0277 169.756 16.1937 170.075 16.5258C170.381 16.8577 170.547 17.2662 170.547 17.777C170.547 18.2878 170.381 18.7091 170.049 19.0539C169.717 19.3987 169.309 19.5647 168.811 19.5647H166.793ZM171.441 17.7898C171.441 17.0492 171.16 16.4108 170.624 15.9128C170.1 15.4277 169.449 15.1723 168.683 15.1723H165.899V23.855H166.793V20.4202H167.827L170.381 23.855H171.581L168.9 20.4202C169.577 20.3819 170.151 20.1393 170.624 19.6923C171.16 19.1944 171.441 18.556 171.441 17.7898Z" fill="white"/>
<path d="M178.087 20.6628L179.67 16.6662L181.241 20.6628H178.087ZM183.475 23.855L179.67 14.5721L175.853 23.855H176.823L177.755 21.4928H181.573L182.505 23.855H183.475Z" fill="white"/>
<path d="M187.686 15.9763H189.792V23.8291H190.686V15.9763H192.793V15.1463H190.686H189.792H187.686V15.9763Z" fill="white"/>
<path d="M202.992 23.855V23.025H198.727V19.935H202.864V19.0923H198.727V16.0022H202.992V15.1723H197.833V23.855H202.992Z" fill="white"/>
<path d="M45.6151 12.5749H46.6288V26.5696H45.6151V12.5749Z" fill="white"/>
</svg>
