<svg width="21" height="20" viewBox="0 0 21 20" fill="none" xmlns="http://www.w3.org/2000/svg">
<path d="M9.95833 3.19667C9.90417 3.37167 9.875 3.5575 9.875 3.75C9.875 4.095 10.155 4.375 10.5 4.375H14.25C14.4158 4.375 14.5747 4.30915 14.6919 4.19194C14.8092 4.07473 14.875 3.91576 14.875 3.75C14.8751 3.56243 14.847 3.3759 14.7917 3.19667M9.95833 3.19667C10.0767 2.81392 10.3145 2.47911 10.6369 2.24128C10.9593 2.00345 11.3494 1.87509 11.75 1.875H13C13.8433 1.875 14.5558 2.43167 14.7917 3.19667M9.95833 3.19667C9.645 3.21583 9.33333 3.23833 9.02167 3.26333C8.07917 3.34167 7.375 4.14417 7.375 5.09V6.875M14.7917 3.19667C15.105 3.21583 15.4167 3.23833 15.7283 3.26333C16.6708 3.34167 17.375 4.14417 17.375 5.09V13.75C17.375 14.2473 17.1775 14.7242 16.8258 15.0758C16.4742 15.4275 15.9973 15.625 15.5 15.625H13.625M7.375 6.875H4.5625C4.045 6.875 3.625 7.295 3.625 7.8125V17.1875C3.625 17.705 4.045 18.125 4.5625 18.125H12.6875C13.205 18.125 13.625 17.705 13.625 17.1875V15.625M7.375 6.875H12.6875C13.205 6.875 13.625 7.295 13.625 7.8125V15.625M6.75 13.125L8 14.375L10.5 11.25" stroke="#667085" stroke-width="1.25" stroke-linecap="round" stroke-linejoin="round"/>
</svg>
